HIERARCHY
ROOT Hips
{
 OFFSET 0.000000 0.000000 0.000000
 CHANNELS 6 Xposition Yposition Zposition Yrotation Xrotation Zrotation
 JOINT Chest
 {
  OFFSET 0.000000 9.857222 0.000240
  CHANNELS 3 Yrotation Xrotation Zrotation
  JOINT Chest2
  {
   OFFSET 0.000000 10.876940 -0.000436
   CHANNELS 3 Yrotation Xrotation Zrotation
   JOINT Chest3
   {
    OFFSET 0.000000 9.827798 0.000000
    CHANNELS 3 Yrotation Xrotation Zrotation
    JOINT Chest4
    {
     OFFSET 0.000000 9.827798 0.000000
     CHANNELS 3 Yrotation Xrotation Zrotation
     JOINT Neck
     {
      OFFSET 0.000000 13.831992 0.000000
      CHANNELS 3 Yrotation Xrotation Zrotation
      JOINT Head
      {
       OFFSET 0.000000 9.147643 -0.001036
       CHANNELS 3 Yrotation Xrotation Zrotation
       End Site
       {
        OFFSET 0.000000 17.515799 -0.000541
       }
      }
     }
     JOINT RightCollar
     {
      OFFSET -3.001579 7.717577 0.000000
      CHANNELS 3 Yrotation Xrotation Zrotation
      JOINT RightShoulder
      {
       OFFSET -14.002642 0.000000 0.000000
       CHANNELS 3 Yrotation Xrotation Zrotation
       JOINT RightElbow
       {
        OFFSET -30.053852 0.000000 0.000000
        CHANNELS 3 Yrotation Xrotation Zrotation
        JOINT RightWrist
        {
         OFFSET -24.564923 0.000000 -0.000000
         CHANNELS 3 Yrotation Xrotation Zrotation
         End Site
         {
          OFFSET -18.334355 0.000000 0.000000
         }
        }
       }
      }
     }
     JOINT LeftCollar
     {
      OFFSET 3.001579 7.717577 0.000000
      CHANNELS 3 Yrotation Xrotation Zrotation
      JOINT LeftShoulder
      {
       OFFSET 14.002642 0.000000 0.000000
       CHANNELS 3 Yrotation Xrotation Zrotation
       JOINT LeftElbow
       {
        OFFSET 30.053852 0.000000 0.000000
        CHANNELS 3 Yrotation Xrotation Zrotation
        JOINT LeftWrist
        {
         OFFSET 24.564923 0.000000 -0.000000
         CHANNELS 3 Yrotation Xrotation Zrotation
         End Site
         {
          OFFSET 18.334355 0.000000 0.000000
         }
        }
       }
      }
     }
    }
   }
  }
 }
 JOINT RightHip
 {
  OFFSET -8.003235 -0.001175 -0.000120
  CHANNELS 3 Yrotation Xrotation Zrotation
  JOINT RightKnee
  {
   OFFSET 0.000000 -41.759727 0.000113
   CHANNELS 3 Yrotation Xrotation Zrotation
   JOINT RightAnkle
   {
    OFFSET 0.000000 -40.728748 0.000159
    CHANNELS 3 Yrotation Xrotation Zrotation
    JOINT RightToe
    {
     OFFSET 0.000000 -6.515296 14.732841
     CHANNELS 3 Yrotation Xrotation Zrotation
     End Site
     {
      OFFSET 0.000000 -1.502839 6.412115
     }
    }
   }
  }
 }
 JOINT LeftHip
 {
  OFFSET 8.003235 -0.001175 -0.000120
  CHANNELS 3 Yrotation Xrotation Zrotation
  JOINT LeftKnee
  {
   OFFSET 0.000000 -41.759727 0.000113
   CHANNELS 3 Yrotation Xrotation Zrotation
   JOINT LeftAnkle
   {
    OFFSET 0.000000 -40.728748 0.000159
    CHANNELS 3 Yrotation Xrotation Zrotation
    JOINT LeftToe
    {
     OFFSET 0.000000 -6.515296 14.732841
     CHANNELS 3 Yrotation Xrotation Zrotation
     End Site
     {
      OFFSET 0.000000 -1.502839 6.412115
     }
    }
   }
  }
 }
}
MOTION
Frames: 14
Frame Time: 0.016667
-4.734771 90.512588 16.755086 -26.875788 -6.937075 -28.862541 0.326460 13.252190 -14.712567 0.225168 6.288422 -6.821151 0.225168 6.288422 -6.821151 0.239184 4.714501 -5.113038 0.081503 21.602473 -0.134195 0.185873 3.933266 -0.266270 -18.843097 -11.885528 3.853754 23.127490 -1.696120 -27.420679 41.147893 -11.405135 -37.429040 7.880633 -1.131671 -22.864763 -32.772989 -5.624458 -1.563107 6.166516 22.611387 -32.461192 -34.944978 -44.445962 30.307643 3.746638 8.880431 13.868953 -0.237118 14.610489 24.222596 -3.636054 3.154365 6.631410 -2.465300 -7.845524 0.161133 -0.735126 0.452498 -0.087069 12.051069 -6.088720 47.832844 0.875739 17.571430 1.037966 -2.025974 -6.284952 -15.367255 0.083135 -0.362479 0.158652
-5.173455 90.331250 16.485422 -27.315768 -7.011480 -28.757681 0.592263 12.841862 -14.482449 0.219456 6.233071 -6.785419 0.219456 6.233071 -6.785419 0.233916 4.673051 -5.086277 0.050882 21.734675 -0.264700 0.167125 4.179087 -0.493540 -18.918074 -11.898670 3.709258 23.598129 -1.554917 -27.392703 41.032180 -11.309323 -37.060792 7.874655 -1.000447 -22.767470 -32.510103 -5.355810 -1.710482 5.852594 22.731582 -32.745769 -34.881549 -45.027693 29.754441 3.829989 9.102410 13.471404 0.351559 14.372363 24.444687 -3.864508 3.172509 6.479931 -1.436053 -8.005068 0.269360 -1.698384 0.538401 -0.483693 11.481085 -5.330776 49.026386 1.497306 17.756460 -0.667791 -1.861443 -6.365244 -15.066188 0.211096 -0.342569 0.216668
-5.589373 90.128309 16.172804 -27.702758 -7.118235 -28.659579 0.805052 12.479685 -14.353165 0.236226 6.155423 -6.774267 0.236226 6.155423 -6.774267 0.245503 4.614622 -5.078188 0.062305 21.895517 -0.347178 0.210369 4.478196 -0.645540 -18.802878 -11.885402 3.604381 23.914401 -1.334340 -27.357579 40.769377 -11.136346 -36.740131 7.887708 -0.836993 -22.628385 -32.250224 -4.980465 -1.855101 5.681155 22.753939 -32.811927 -34.759791 -45.554538 29.236909 3.829139 9.259154 13.130738 0.952009 14.129013 24.765426 -4.190349 3.202250 6.243440 -0.567481 -8.218898 0.309956 -2.509103 0.691889 -0.811657 10.754563 -4.450711 49.982347 2.322624 18.038454 -1.898258 -1.608582 -6.484215 -14.956114 0.266784 -0.297620 0.243808
-5.938368 89.957749 15.913500 -27.811296 -7.567947 -28.761718 1.012737 12.621319 -14.120769 0.261346 6.072001 -6.778443 0.261346 6.072001 -6.778443 0.263440 4.551768 -5.081667 0.098036 22.029652 -0.399321 0.288872 4.727807 -0.749367 -18.715929 -11.995497 3.531626 24.210440 -1.073800 -27.399160 40.496958 -10.980491 -36.226605 7.904115 -0.714575 -22.616066 -32.020362 -4.816802 -1.906205 5.678582 22.776570 -32.700406 -34.617568 -46.040913 28.710678 3.739522 9.504505 12.925579 1.461002 14.319100 25.265711 -4.483255 3.215812 5.962267 -0.037138 -8.175389 0.278722 -2.972430 0.625471 -0.989317 9.860997 -3.208176 50.975340 3.052697 18.565072 -2.641405 -1.738977 -6.663845 -15.334781 0.828802 -0.498352 0.490223
-5.935961 89.810922 15.770547 -27.809131 -7.570802 -28.408567 0.897311 12.527482 -14.441578 0.274593 6.018863 -6.780528 0.274593 6.018863 -6.780528 0.272796 4.511762 -5.083421 0.148650 22.102645 -0.433221 0.389364 4.863962 -0.824444 -18.653917 -12.366072 3.478863 24.540497 -0.650238 -27.374599 40.141886 -10.852557 -35.791973 7.953508 -0.662368 -22.551217 -31.853729 -4.931002 -1.848263 5.796053 22.712965 -32.494160 -34.268528 -46.229327 28.075293 3.641394 9.819166 12.909602 1.324868 14.323949 25.047329 -4.614489 3.170920 5.791664 0.124734 -8.436534 0.198143 -3.015018 0.911747 -1.010166 9.584013 -2.910163 50.280515 2.984231 18.556141 -2.258878 -0.593110 -7.045060 -15.389753 0.333195 0.042826 0.273237
-5.501767 89.838110 15.975178 -27.547250 -7.624335 -28.158052 0.658808 12.646139 -14.760779 0.279435 6.010766 -6.776799 0.279435 6.010766 -6.776799 0.276297 4.505635 -5.080683 0.216964 22.112581 -0.446189 0.516375 4.883095 -0.866853 -18.660771 -12.783432 3.448762 24.957534 -0.257537 -27.396567 39.698582 -10.744447 -35.546862 8.071729 -0.634808 -22.407040 -31.724501 -5.148769 -1.755775 5.922475 22.478027 -32.221849 -33.650870 -46.032188 27.435789 3.529100 9.867185 12.976840 0.753271 14.663273 24.525644 -4.507032 3.062868 5.799470 -0.528411 -8.329177 0.072183 -2.280419 0.888042 -0.701670 11.229327 -4.431633 48.254087 0.681609 18.124833 0.168815 0.273481 -7.390522 -16.126029 -0.002631 0.590269 0.122485
-4.696083 89.950527 16.535235 -27.374905 -8.158748 -27.325443 0.613571 13.214524 -15.726305 0.286237 6.019816 -6.775445 0.286237 6.019816 -6.775445 0.281483 4.512349 -5.079726 0.298520 22.088755 -0.424808 0.658006 4.839423 -0.851078 -18.794037 -13.009206 3.420704 25.370486 -0.016543 -27.592686 39.302975 -10.720370 -35.478395 8.189123 -0.554325 -22.213783 -31.594869 -5.279445 -1.680729 5.910688 22.059938 -31.966004 -33.192455 -45.892942 27.201014 3.384848 9.962800 13.116341 0.218184 15.434323 23.153666 -4.263694 2.973294 5.970035 -2.028698 -8.350529 -0.209351 -0.720360 0.992317 -0.045327 14.086495 -5.179377 44.957626 -1.888720 16.998195 2.884885 2.125529 -7.656412 -16.134662 -1.275998 1.434142 -0.453532
-4.419904 90.079305 16.733657 -26.750179 -7.867361 -28.119478 0.190119 13.292900 -15.127110 0.285908 6.034292 -6.776652 0.285908 6.034292 -6.776652 0.281409 4.523211 -5.080611 0.377061 22.058122 -0.364762 0.783464 4.782726 -0.764663 -18.919587 -13.197860 3.399806 25.732127 0.227563 -27.822530 38.974591 -10.637447 -35.659044 8.280598 -0.532095 -22.005745 -31.529007 -5.346406 -1.662286 5.874691 21.545699 -31.732474 -32.927376 -45.780833 27.314068 3.201697 10.147015 13.347729 -0.564550 15.601659 23.568206 -3.948177 2.945672 6.146674 -2.699998 -7.595491 -0.317714 -0.133260 0.238776 0.166983 12.162412 -4.677039 46.255135 -1.277784 17.759441 1.907042 1.093233 -7.783431 -16.252455 0.034101 0.783326 0.129436
-4.241040 90.088429 16.879748 -26.401139 -7.797028 -28.300354 0.033088 13.468192 -15.152598 0.281923 6.049828 -6.783563 0.281923 6.049828 -6.783563 0.278664 4.534907 -5.085733 0.437917 22.040264 -0.254088 0.862698 4.749066 -0.581713 -18.906400 -13.430183 3.411961 25.982027 0.469481 -28.049672 38.831557 -10.407869 -35.863664 8.361308 -0.628178 -21.970978 -31.602840 -5.417119 -1.673738 5.913241 21.144187 -31.522274 -32.819220 -45.575801 27.661801 3.062143 10.404539 13.685455 -0.983499 15.738155 23.548166 -3.789120 2.960106 6.253189 -3.095727 -7.501134 -0.378934 0.189728 0.123545 0.252281 11.829922 -4.475796 46.363468 -1.422747 17.875843 1.621031 1.156862 -8.003692 -16.033736 0.119127 0.734876 0.160678
-4.103557 90.104318 17.014475 -26.444252 -7.614619 -28.527513 0.178761 13.384040 -15.136952 0.293566 6.057263 -6.796880 0.293566 6.057263 -6.796880 0.287605 4.540351 -5.095819 0.472440 22.034199 -0.112533 0.885595 4.736826 -0.335488 -18.856557 -13.598001 3.426878 26.092027 0.732608 -28.262418 38.939147 -10.209279 -36.232585 8.411690 -0.707560 -21.901557 -31.748428 -5.462632 -1.677902 5.998908 20.870787 -31.349841 -32.663263 -44.987831 28.032748 2.911868 10.412708 14.078013 -0.955896 15.573198 23.703680 -3.699819 3.000380 6.294755 -3.543319 -7.425947 -0.415726 0.578857 -0.025012 0.366595 12.167102 -5.162848 46.274549 -2.047914 17.886135 1.927407 1.245236 -7.948904 -16.110652 0.087025 0.694868 0.137151
-4.071972 90.113779 17.070079 -26.344544 -7.376260 -28.801940 0.196836 13.351464 -15.161715 0.302700 6.055537 -6.814880 0.302700 6.055537 -6.814880 0.294610 4.538950 -5.109399 0.484714 22.040810 0.047026 0.863172 4.747980 -0.050409 -18.981752 -13.667315 3.417826 26.321694 0.873830 -28.438949 39.107442 -9.911602 -36.594652 8.462927 -0.800320 -21.741665 -31.861692 -5.451511 -1.671491 6.043958 20.777260 -31.152344 -32.586154 -44.216948 28.370394 2.597922 10.123881 14.531922 -0.992157 15.333648 23.983261 -3.710433 3.065775 6.304801 -3.762092 -7.377809 -0.406970 0.707063 -0.114735 0.371192 11.855625 -5.301965 46.495199 -1.867110 18.076096 1.903819 1.135612 -8.078223 -16.069602 0.103474 0.622488 0.131721
-4.088070 90.124830 17.112516 -26.398937 -7.107178 -29.102738 0.343809 13.215257 -15.205100 0.320239 6.043578 -6.844442 0.320239 6.043578 -6.844442 0.307914 4.529774 -5.131737 0.476587 22.078203 0.220289 0.800054 4.816409 0.265277 -19.118982 -13.627653 3.400942 26.526790 0.860699 -28.657626 39.325521 -9.479257 -36.745134 8.496227 -0.918324 -21.620474 -31.992723 -5.460273 -1.659390 6.021808 21.005435 -30.977646 -33.018257 -43.898640 29.023082 2.005699 9.954538 15.101247 -0.916000 15.031173 24.322340 -3.613649 3.136357 6.307465 -4.003007 -7.331603 -0.415089 0.876369 -0.234376 0.397349 11.871788 -5.905080 46.707708 -1.911649 18.244234 2.071681 0.934708 -8.073142 -16.129395 0.075979 0.548033 0.098979
-4.140738 90.132916 17.137793 -26.406440 -6.789125 -29.395978 0.453602 13.062542 -15.304911 0.344131 6.009812 -6.889814 0.344131 6.009812 -6.889814 0.325889 4.504162 -5.166006 0.454435 22.166125 0.395267 0.711389 4.979057 0.588035 -19.194558 -13.476629 3.407253 26.458559 1.143280 -28.852981 39.599690 -9.251225 -37.048525 8.527806 -1.057766 -21.550219 -32.187059 -5.476529 -1.642000 6.036796 21.492139 -30.769804 -33.861173 -44.003879 30.060040 1.281586 9.838660 15.728988 -0.922075 14.673053 24.637300 -3.554434 3.259043 6.360770 -4.124321 -7.313870 -0.414656 0.933582 -0.329062 0.370894 11.851388 -6.528532 46.970658 -2.110372 18.481713 2.082484 0.821706 -8.146935 -16.127868 0.056376 0.464819 0.061744
-4.203904 90.133770 17.210438 -26.613887 -6.751483 -29.589937 0.892773 13.038029 -15.507450 0.377707 5.968805 -6.945231 0.377707 5.968805 -6.945231 0.351132 4.473001 -5.207902 0.430236 22.294500 0.556035 0.623566 5.217294 0.885508 -19.278861 -13.304158 3.423027 26.340076 1.731264 -28.928806 39.776106 -9.149702 -37.407095 8.544609 -1.196203 -21.599499 -32.386767 -5.372084 -1.626997 6.040107 22.040577 -30.528178 -34.873451 -44.262517 31.468731 0.685381 9.668097 15.844573 -0.722000 14.526807 24.826481 -3.497571 3.376106 6.450119 -4.279400 -7.335902 -0.428075 1.079300 -0.384644 0.376455 12.347625 -7.015209 47.050343 -2.673681 18.556233 2.193283 1.124626 -8.272130 -16.118932 -0.121218 0.524086 -0.052598
